# xmcd
#
# Track frame offsets:
#	150
#	32167
#	48620
#	72527
#	96767
#	119407
#	147620
#	175417
#	198085
#	237690
#
# Disc length: 4432 seconds
#
# Revision: 0
# Processed by: cddbd v1.5.2PL0 Copyright (c) Steve Scherf et al.
# Submitted via: audiograbber 1.83.01
#
DISCID=9d114e0a
DTITLE=Michael Gulezian - Concert At St. Olaf College
DYEAR=2004
DGENRE=
TTITLE0=Mile High Country
TTITLE1=Watermelon
TTITLE2=Little Meggie
TTITLE3=Jesu Joy Of Man's Desiring 
TTITLE4=Slugbug
TTITLE5=Tumbledweeb
TTITLE6=My Trampoline Heart
TTITLE7=Whale In The Sky
TTITLE8=Meandering Jellique
TTITLE9=Enhanced CD 
EXTD=
EXTT0=
EXTT1=
EXTT2=
EXTT3=
EXTT4=
EXTT5=
EXTT6=
EXTT7=
EXTT8=
EXTT9=
PLAYORDER=
